<svg xmlns="http://www.w3.org/2000/svg" width="400" height="400" viewBox="0 0 400 400"><title>tymer-switches</title><path d="M212.69,56.81V14.46a13.5,13.5,0,0,0-27,0V56.81a48.21,48.21,0,0,0,0,92.58V386.46a13.5,13.5,0,1,0,27,0V149.39a48.21,48.21,0,0,0,0-92.58Zm0,78.85a35.25,35.25,0,0,1-27-65.12,35.46,35.46,0,0,1,27,0,35.26,35.26,0,0,1,0,65.12ZM69,237.35V14.46a13.5,13.5,0,0,0-27,0V237.35a48.21,48.21,0,0,0,0,92.58v56.53a13.5,13.5,0,1,0,27,0V329.93a48.21,48.21,0,0,0,0-92.58Zm0,78.85a34.74,34.74,0,0,1-27,0,35.21,35.21,0,0,1,0-65.06,34.74,34.74,0,0,1,27,0,35.21,35.21,0,0,1,0,65.06Zm288.6-122.11V14.46a13.5,13.5,0,0,0-27,0V194.09a48.2,48.2,0,0,0,0,92.57v99.8a13.5,13.5,0,1,0,27,0v-99.8a48.18,48.18,0,0,0,0-92.57Zm0,78.85a35.59,35.59,0,0,1-27,0,35.27,35.27,0,0,1,0-65.13,35.59,35.59,0,0,1,27,0,35.23,35.23,0,0,1,0,65.13Z"/><path d="M90.71,283.67A35.17,35.17,0,0,1,69,316.2a34.74,34.74,0,0,1-27,0,35.21,35.21,0,0,1,0-65.06,34.74,34.74,0,0,1,27,0A35.17,35.17,0,0,1,90.71,283.67Zm122-213.13a35.46,35.46,0,0,0-27,0,35.26,35.26,0,0,0,0,65.12,35.46,35.46,0,0,0,27,0,35.26,35.26,0,0,0,0-65.12ZM357.58,207.81a35.59,35.59,0,0,0-27,0,35.27,35.27,0,0,0,0,65.13,35.59,35.59,0,0,0,27,0,35.23,35.23,0,0,0,0-65.13Z" fill="#f8ae6a"/></svg>