<svg xmlns="http://www.w3.org/2000/svg" width="400" height="400" viewBox="0 0 400 400"><title>tymer-stop-watch</title><path d="M150.54,87.11a56.71,56.71,0,1,1,70,23,6.76,6.76,0,1,1-5.13-12.5,43.22,43.22,0,1,0-53.36-17.48,6.81,6.81,0,0,1-2.3,9.28A6.73,6.73,0,0,1,150.54,87.11ZM164,103.55l8.63,5.41a6.8,6.8,0,0,0,9.07-3,6.71,6.71,0,0,0-3-9.06l-6.61-4.15A6.77,6.77,0,0,0,164,103.55Zm-98.86,31a6.76,6.76,0,0,1,.82-9.56l27-22.88a6.86,6.86,0,0,1,9.56.82l7.43,8.79a18.2,18.2,0,0,1-2.19,25.72l-9.45,8a18.29,18.29,0,0,1-25.78-2.18Zm14.69-3.61,3.06,3.61a4.79,4.79,0,0,0,6.66.6l9.45-8a4.73,4.73,0,0,0,.6-6.61l-3.06-3.66Zm263.48,124.7c0,79.58-64.72,144.3-144.3,144.3s-144.3-64.72-144.3-144.3c0-76.08,59.15-138.57,133.92-143.92V91.86A26.26,26.26,0,0,1,170.86,84a27,27,0,0,1-8-19.17V48.11a10.41,10.41,0,0,1,10.37-10.38h51.46a10.41,10.41,0,0,1,10.37,10.38V64.83A27.11,27.11,0,0,1,227.17,84a26.06,26.06,0,0,1-17.8,7.86v19.83C284.09,117,343.29,179.53,343.29,255.61ZM211.55,73.67a8.73,8.73,0,0,0,6.17-2.56c3.12-3.12,2.95-9.18,2.74-15.08H177.52c-.21,5.68-.32,12,2.74,15.08a8.87,8.87,0,0,0,6.28,2.56ZM320.19,255.61A121.2,121.2,0,1,0,199,376.81,121.21,121.21,0,0,0,320.19,255.61ZM199,146.18A6.81,6.81,0,0,0,192.2,153V248.1H117.33a6.79,6.79,0,0,0,0,13.57h81.52a6.74,6.74,0,0,0,6.92-6.92V153A6.81,6.81,0,0,0,199,146.18Z" fill="#fff"/></svg>