<svg xmlns="http://www.w3.org/2000/svg" width="399" height="113.69" viewBox="0 0 399 113.69"><title>tymer-logo</title><path d="M380,18.2a16,16,0,0,0-11.73,4.74c-3,3-5.3,7.26-6.61,13.15h-.94V20.71H328.46V35c-3.18-9.53-11.6-19.21-33.33-19.21a46.64,46.64,0,0,0-14.4,2.12,32.27,32.27,0,0,0-11.35,6.29,28.18,28.18,0,0,0-7.46,10.37A36.56,36.56,0,0,0,259.27,49a38,38,0,0,0,1.93,12.58c-1.92,0-3.23-.43-3.91-1.25a6.71,6.71,0,0,1-1-4.22V40.41c0-4,.66-24-23.5-24-22.65,0-22.45,19.72-22.45,19.72h-.78c-.15-3-.6-19.92-20.08-19.92s-22.81,14.18-23.63,19.92h-2.14V20.74H103.74V41.47c2.35,0,3.89.38,4.61,1.15s.79,1.8.2,3.1L102,60.14,95.25,45.72c-.6-1.45-.53-2.52.19-3.21s2.27-1,4.61-1V20.74H39.91V0H19.45A26.93,26.93,0,0,1,18,8.83a24,24,0,0,1-4,7.35,18.78,18.78,0,0,1-6.2,5A17.14,17.14,0,0,1,0,23V41.47H8.78V59.3a65,65,0,0,0,.75,10.23,18.71,18.71,0,0,0,3.21,8.11A16.24,16.24,0,0,0,20,83q4.76,1.95,12.75,2a30.88,30.88,0,0,0,12-2,19.11,19.11,0,0,0,7.52-5.43,20.4,20.4,0,0,0,3.91-8.1A42.79,42.79,0,0,0,57.23,59.3v-9H50.81v8.33a29.15,29.15,0,0,1-.17,3.22,6.83,6.83,0,0,1-.81,2.62,5.21,5.21,0,0,1-1.73,1.85,5.34,5.34,0,0,1-2.88.7c-2.16,0-3.59-.79-4.28-2.35a15.11,15.11,0,0,1-1-6V41.47H55.17a18.12,18.12,0,0,1,3.44.28,6.84,6.84,0,0,1,2.29.87,5.53,5.53,0,0,1,1.57,1.48,12.85,12.85,0,0,1,1.2,2.18L87.48,92.17l-.11.33a27.17,27.17,0,0,1-1.49,3,17.28,17.28,0,0,1-2.18,3.07A13.25,13.25,0,0,1,80.91,101a6.39,6.39,0,0,1-3.49,1,7.31,7.31,0,0,1-2.74-.33,1.51,1.51,0,0,1-.73-.34,8.17,8.17,0,0,0,6.76-8.83,13,13,0,0,0-.61-3.8A9.48,9.48,0,0,0,77.92,85a11.86,11.86,0,0,0-4-2.74,15.58,15.58,0,0,0-6.1-1.06A14.64,14.64,0,0,0,57.43,85.1Q53.27,89,53.27,95.74a17.17,17.17,0,0,0,1.37,6.68,15.83,15.83,0,0,0,4.22,5.79,20.87,20.87,0,0,0,7.21,4,31.58,31.58,0,0,0,10.17,1.49q8.28,0,13.42-2.63a26,26,0,0,0,8.41-6.62,36.26,36.26,0,0,0,5.28-8.7c1.34-3.13,22.92-49.46,22.92-49.46a8.82,8.82,0,0,1,2.82-3.66q1.65-1.15,5.78-1.15h.94a6.6,6.6,0,0,1,3.49.93c1,.61,1.54,1.79,1.54,3.54V56.56a5.45,5.45,0,0,1-1.2,3.55,4.23,4.23,0,0,1-3.49,1.48h-3.3V82.33H178.4V61.59h-1.85c-2,0-3.3-.42-4-1.25a6.71,6.71,0,0,1-1-4.22v-8c0-3.69,1-6.77,5.67-6.77,5.49,0,6,4.11,6,6.77V82.33h37.56V61.59h-1.85c-2,0-3.31-.42-4-1.25a6.78,6.78,0,0,1-1-4.22v-8c0-2.61,1.18-6.65,6-6.65,5.06,0,5.68,5.2,5.68,6.65V82.33h38.68V67.43c4.19,5.77,13.91,14.88,30.78,14.88,21.56,0,30.19-9,33.43-15.56V82.31h47.06V61.57h-3.35c-2,0-3.31-.41-4-1.26a6.74,6.74,0,0,1-1-4.22V43.29c0-3.83.45-6.64,1.37-8.43s2.35-3,3.51-2.58c1.33.48,1.27,1.19,1,1.54-.4.53-1.09,1.54-1.09,5S374.78,49,384.64,49,399,44.51,399,34.69C399,28.34,395.73,18.2,380,18.2Zm-82.59,14c6.47,0,7.48,6,7.69,9.23H289.56C290,37.71,290.94,32.2,297.41,32.2Zm39,24.34a5.43,5.43,0,0,1-1.21,3.56,4.25,4.25,0,0,1-3.48,1.47H310.88c-.21,2-2.11,5.67-10.34,5.67-11.18,0-10.84-9.09-11-14.65h40.63a63.18,63.18,0,0,0-.26-11.13h1.5a6.63,6.63,0,0,1,3.49.93c1,.61,1.54,1.79,1.54,3.54Z" fill="#004666"/></svg>