<?xml version="1.0" encoding="utf-8"?>
<!-- Generator: Adobe Illustrator 22.0.1, SVG Export Plug-In . SVG Version: 6.00 Build 0)  -->
<svg version="1.1" id="Layer_1" xmlns="http://www.w3.org/2000/svg" xmlns:xlink="http://www.w3.org/1999/xlink" x="0px" y="0px"
	 viewBox="0 0 400 400" style="enable-background:new 0 0 400 400;" xml:space="preserve">
<style type="text/css">
	.st0{fill:#F8AE6A;}
</style>
<title>tymer-light-bulb</title>
<path class="st0" d="M211,175.5v106.5h-23.1V175.5H211z M163.7,137.9c-7.4,0.2-13.6,6.4-13.4,13.8c0.2,7.1,6.3,12.8,13.4,13H177
	v-13.4C177,143.9,171,137.9,163.7,137.9L163.7,137.9z M156.3,306.6h86.2v-8.2h-86.2V306.6z M156.3,331.1h86.2v-8.2h-86.2V331.1z
	 M167.3,353h4.9c0.8,0,1.6,0.1,2.4,0.3h49.6c0.8-0.2,1.6-0.3,2.4-0.3h4.9c3.9,0,7.5-2.1,9.4-5.5h-83.1
	C159.8,350.9,163.4,353,167.3,353z M199.4,378.2c6.3,0,11.6-4.1,14.4-8.6h-28.7C187.8,374,193.2,378.1,199.4,378.2L199.4,378.2z
	 M249,151.3c-0.2-7.4-6.8-13.6-14.2-13.4c-7.1,0.2-12.8,5.9-13,13v13.8h13.4c7.4,0,13.4-6,13.4-13.4L249,151.3z M275.2,215.9
	c-18.6,17.3-30.1,40.8-32.2,66.1h-21.2V175.5h13.4c13.4,0,24.3-10.8,24.3-24.2S248.7,127,235.3,127c-13.4,0-24.3,10.8-24.3,24.2
	c0,0,0,0,0,0v13.4h-23.1v-13.4c0-13.4-10.9-24.3-24.3-24.3s-24.3,10.9-24.3,24.3c0,13.4,10.9,24.3,24.3,24.3H177v106.5h-21.1
	c-2.1-25.3-13.7-48.9-32.3-66.2c-25.4-23.5-38.4-57.5-35.2-92c4.8-53.8,49.1-97.2,103-100.9c2.7-0.2,5.3-0.2,8-0.2s5.3,0.1,7.9,0.2
	c53.9,3.8,98.3,47.1,103.1,100.9C313.7,158.4,300.7,192.4,275.2,215.9L275.2,215.9z M251.6,49.6c-15.6-9.8-33.7-15-52.2-15
	c-4.5,0.2-8,3.9-7.9,8.5c0.2,4.3,3.6,7.7,7.9,7.9c15.4,0,30.4,4.3,43.5,12.5c3.8,2.4,8.9,1.3,11.3-2.5c0,0,0,0,0,0
	C256.6,57.1,255.4,52,251.6,49.6C251.6,49.6,251.6,49.6,251.6,49.6z M290,95.3c-3.2-7.9-7.5-15.3-12.6-22.1
	c-2.7-3.6-7.9-4.3-11.4-1.6c-3.6,2.7-4.3,7.9-1.6,11.4c4.3,5.7,7.9,11.9,10.5,18.4c2,4.1,6.8,5.8,10.9,3.8
	C289.5,103.5,291.3,99.2,290,95.3z"/>
<path d="M332.1,121.9C326.4,57.6,273.4,5.7,208.8,1.2c-6.3-0.4-12.6-0.4-18.9,0C125.5,5.7,72.5,57.6,66.7,121.9
	c-3.9,41.2,11.7,81.8,42.1,109.9c16.3,15,25.6,36.2,25.7,58.4V342c0,16.5,12.3,30.4,28.7,32.4c4.9,13.4,18.8,25.5,36.1,25.5
	s31.2-12,36.1-25.5c16.4-2,28.7-15.9,28.7-32.4v-51.8c0.1-22.2,9.4-43.3,25.7-58.4C320.4,203.8,336,163.1,332.1,121.9z M199.4,378.1
	c-6.3,0-11.6-4.1-14.4-8.6h28.7C211.1,374,205.7,378.1,199.4,378.1z M231.6,353h-4.9c-0.8,0-1.6,0.1-2.4,0.3h-49.6
	c-0.8-0.2-1.6-0.3-2.4-0.3h-4.9c-3.9,0-7.5-2.1-9.4-5.5H241C239.1,350.9,235.5,353,231.6,353z M242.5,331.2h-86.2V323h86.2V331.2z
	 M242.5,306.6h-86.2v-8.2h86.2V306.6z M177,164.6h-13.4c-7.4,0-13.4-6-13.4-13.4c0-7.4,6-13.4,13.4-13.4c7.4,0,13.4,6,13.4,13.4
	c0,0,0,0,0,0V164.6z M187.9,282.1V175.5H211v106.5H187.9z M275.2,215.9c-18.6,17.3-30.1,40.9-32.2,66.2h-21.2V175.5h13.4
	c13.4,0,24.3-10.8,24.3-24.2S248.7,127,235.3,127c-13.4,0-24.3,10.8-24.3,24.2c0,0,0,0,0,0v13.4h-23.1v-13.4
	c0-13.4-10.9-24.3-24.3-24.3s-24.3,10.9-24.3,24.3c0,13.4,10.9,24.3,24.3,24.3H177v106.5h-21.1c-2.1-25.3-13.7-48.9-32.3-66.2
	c-25.4-23.5-38.4-57.5-35.2-92c4.8-53.8,49.1-97.2,103-100.9c2.7-0.2,5.3-0.2,8-0.2s5.3,0.1,7.9,0.2c53.9,3.8,98.3,47.1,103.1,100.9
	C313.7,158.4,300.7,192.4,275.2,215.9L275.2,215.9z M221.8,164.6v-13.4c0-7.4,6-13.4,13.4-13.4s13.4,6,13.4,13.4s-6,13.4-13.4,13.4
	l0,0H221.8z M254.1,60.8c-2.4,3.8-7.4,5-11.3,2.6c0,0,0,0,0,0c-13-8.2-28.1-12.5-43.5-12.5c-4.5-0.2-8-3.9-7.9-8.5
	c0.2-4.3,3.6-7.7,7.9-7.9c18.5,0,36.5,5.2,52.2,15C255.4,51.9,256.6,57,254.1,60.8C254.2,60.8,254.1,60.8,254.1,60.8L254.1,60.8z
	 M290,95.3c1.7,4.2-0.3,8.9-4.5,10.6s-8.9-0.3-10.6-4.5c-2.7-6.6-6.2-12.8-10.5-18.4c-2.7-3.6-2-8.7,1.6-11.4
	c3.6-2.7,8.7-2,11.4,1.6l0,0C282.5,80,286.8,87.4,290,95.3z"/>
</svg>
